# xmcd
#
# Track frame offsets:
#	150
#	15707
#	36200
#	51815
#	70025
#	90180
#	111232
#	124887
#	138602
#	151940
#	165855
#	180272
#	195287
#	210820
#
# Disc length: 3005 seconds
#
# Revision: 1
# Processed by: cddbd v1.5.1PL0 Copyright (c) Steve Scherf et al.
# Submitted via: CDex 1.50Beta5
#
DISCID=a30bbb0e
DTITLE=BILLIE HOLIDAY - BEST SELLERS JAZZ
DYEAR=1900
DGENRE=JAZZ
TTITLE0=恋は愚かというけれど
TTITLE1=バット・ビューティフル
TTITLE2=コートにすみれを
TTITLE3=・トウ・リメンバー
TTITLE4=アラバマに星落ちて
TTITLE5=霧深き日
TTITLE6=あなたなしでも暮らせるわ
TTITLE7=月に願いを
TTITLE8=サマータイム
TTITLE9=明るい表通り
TTITLE10=時の過ぎ行くまま
TTITLE11=恋人よ我に帰れ
TTITLE12=イェスタデイズ
TTITLE13=奇妙な果実
EXTD=
EXTT0=
EXTT1=
EXTT2=
EXTT3=
EXTT4=
EXTT5=
EXTT6=
EXTT7=
EXTT8=
EXTT9=
EXTT10=
EXTT11=
EXTT12=
EXTT13=
PLAYORDER=
